<mxfile host="app.diagrams.net" modified="2022-01-14T10:30:22.043Z" agent="5.0 (Windows NT 10.0; Win64; x64) AppleWebKit/537.36 (KHTML, like Gecko) Chrome/97.0.4692.71 Safari/537.36" etag="ZCa8b14do5A1JAdTIKIs" version="16.2.6" type="github">
  <diagram id="C5RBs43oDa-KdzZeNtuy" name="Page-1">
    <mxGraphModel dx="1066" dy="561" grid="0" gridSize="10" guides="1" tooltips="1" connect="1" arrows="1" fold="1" page="1" pageScale="1" pageWidth="1654" pageHeight="2336" background="#FFFFFF" math="0" shadow="0">
      <root>
        <mxCell id="WIyWlLk6GJQsqaUBKTNV-0" />
        <mxCell id="WIyWlLk6GJQsqaUBKTNV-1" parent="WIyWlLk6GJQsqaUBKTNV-0" />
        <mxCell id="K8bclb6LGtlDlfc69TNg-4" value="" style="edgeStyle=orthogonalEdgeStyle;rounded=0;orthogonalLoop=1;jettySize=auto;html=1;fontSize=16;strokeWidth=5;strokeColor=#FF0000;" edge="1" parent="WIyWlLk6GJQsqaUBKTNV-1" source="WIyWlLk6GJQsqaUBKTNV-3" target="K8bclb6LGtlDlfc69TNg-2">
          <mxGeometry relative="1" as="geometry" />
        </mxCell>
        <mxCell id="WIyWlLk6GJQsqaUBKTNV-3" value="&lt;font style=&quot;font-size: 16px&quot;&gt;mail()等能启动新进程的函数&lt;/font&gt;" style="rounded=1;whiteSpace=wrap;html=1;fontSize=12;glass=0;strokeWidth=1;shadow=0;" parent="WIyWlLk6GJQsqaUBKTNV-1" vertex="1">
          <mxGeometry x="40" y="220" width="180" height="90" as="geometry" />
        </mxCell>
        <mxCell id="K8bclb6LGtlDlfc69TNg-5" value="" style="edgeStyle=orthogonalEdgeStyle;rounded=0;orthogonalLoop=1;jettySize=auto;html=1;fontSize=16;fillColor=#e51400;strokeColor=#FF0000;strokeWidth=5;" edge="1" parent="WIyWlLk6GJQsqaUBKTNV-1" source="K8bclb6LGtlDlfc69TNg-2" target="K8bclb6LGtlDlfc69TNg-3">
          <mxGeometry relative="1" as="geometry" />
        </mxCell>
        <mxCell id="K8bclb6LGtlDlfc69TNg-2" value="进程启动时加载LD_PRELOAD中的so文件" style="rounded=1;whiteSpace=wrap;html=1;fontSize=16;" vertex="1" parent="WIyWlLk6GJQsqaUBKTNV-1">
          <mxGeometry x="290" y="220" width="200" height="90" as="geometry" />
        </mxCell>
        <mxCell id="K8bclb6LGtlDlfc69TNg-3" value="查看新进程调用的函数，在so文件中重写" style="rounded=1;whiteSpace=wrap;html=1;fontSize=16;" vertex="1" parent="WIyWlLk6GJQsqaUBKTNV-1">
          <mxGeometry x="540" y="220" width="200" height="90" as="geometry" />
        </mxCell>
        <mxCell id="K8bclb6LGtlDlfc69TNg-10" value="" style="edgeStyle=orthogonalEdgeStyle;rounded=0;orthogonalLoop=1;jettySize=auto;html=1;fontSize=16;fillColor=#e51400;strokeColor=#FF0000;strokeWidth=5;" edge="1" parent="WIyWlLk6GJQsqaUBKTNV-1" source="K8bclb6LGtlDlfc69TNg-7" target="WIyWlLk6GJQsqaUBKTNV-3">
          <mxGeometry relative="1" as="geometry" />
        </mxCell>
        <mxCell id="K8bclb6LGtlDlfc69TNg-7" value="php中调用mail()等函数&lt;br&gt;php中写入LD_PRELOAD环境变量(putenv)" style="rounded=1;whiteSpace=wrap;html=1;fontSize=16;" vertex="1" parent="WIyWlLk6GJQsqaUBKTNV-1">
          <mxGeometry x="35" y="70" width="190" height="90" as="geometry" />
        </mxCell>
        <mxCell id="K8bclb6LGtlDlfc69TNg-11" value="" style="edgeStyle=orthogonalEdgeStyle;rounded=0;orthogonalLoop=1;jettySize=auto;html=1;fontSize=16;strokeWidth=5;strokeColor=#FF0000;" edge="1" parent="WIyWlLk6GJQsqaUBKTNV-1" source="K8bclb6LGtlDlfc69TNg-8" target="K8bclb6LGtlDlfc69TNg-2">
          <mxGeometry relative="1" as="geometry" />
        </mxCell>
        <mxCell id="K8bclb6LGtlDlfc69TNg-12" style="edgeStyle=orthogonalEdgeStyle;rounded=0;orthogonalLoop=1;jettySize=auto;html=1;fontSize=16;strokeWidth=5;strokeColor=#FF0000;" edge="1" parent="WIyWlLk6GJQsqaUBKTNV-1" source="K8bclb6LGtlDlfc69TNg-8" target="K8bclb6LGtlDlfc69TNg-3">
          <mxGeometry relative="1" as="geometry" />
        </mxCell>
        <mxCell id="K8bclb6LGtlDlfc69TNg-8" value="so文件劫持新进程调用函数&lt;br&gt;上传so文件" style="rounded=1;whiteSpace=wrap;html=1;fontSize=16;" vertex="1" parent="WIyWlLk6GJQsqaUBKTNV-1">
          <mxGeometry x="290" y="70" width="200" height="90" as="geometry" />
        </mxCell>
      </root>
    </mxGraphModel>
  </diagram>
</mxfile>
